<svg xmlns="http://www.w3.org/2000/svg" viewBox="0 0 64 64">
  <g id="Capa_2" data-name="Capa 2">
    <g id="Capa_1-2" data-name="Capa 1">
      <rect width="64" height="64" rx="12"/>
      <path d="M26.2,54A7.57,7.57,0,0,1,23,53.38c-.88-.43-1.77-.89-2.65-1.39a23.73,23.73,0,0,0-2.86-1.39A10.18,10.18,0,0,0,13.58,50a5.57,5.57,0,0,0-1.34.14,5.17,5.17,0,0,0-1.23.47,9.71,9.71,0,0,0-1.31.86c-.46.35-1,.8-1.59,1.34C9.8,51,11.26,49.59,12.5,48.5A26.78,26.78,0,0,1,15.73,46a9.24,9.24,0,0,1,2.35-1.17,6.52,6.52,0,0,1,1.83-.28,8.38,8.38,0,0,1,3.15.65c1.09.43,2.18.92,3.28,1.45s2.21,1,3.31,1.45a8.72,8.72,0,0,0,3.17.65,2,2,0,0,0,.69-.12,3,3,0,0,0,.76-.45c.28-.22.63-.52,1-.9l1.55-1.47c-1.66,1.72-3,3.11-4.12,4.19A36.18,36.18,0,0,1,30,52.5a7.34,7.34,0,0,1-2,1.2A5.06,5.06,0,0,1,26.2,54ZM34,32.65l1.84-.08a4.52,4.52,0,0,1,2.16.35A7.14,7.14,0,0,1,39.84,34a5.93,5.93,0,0,0,1.51-2.69,13,13,0,0,0,.45-3.47,11.37,11.37,0,0,0-1-4.88,10,10,0,0,0-3-3.74,14.72,14.72,0,0,0-5.05-2.39,26.13,26.13,0,0,0-7-.84,18.07,18.07,0,0,0-5.8.88,13.72,13.72,0,0,0-4.35,2.37,10.15,10.15,0,0,0-2.71,3.47,9.61,9.61,0,0,0-.94,4.19,10.52,10.52,0,0,0,.51,3.28A7.36,7.36,0,0,0,14,33a8.84,8.84,0,0,0,2.78,2,10.76,10.76,0,0,0,4,.9l.08-10.29a11.59,11.59,0,0,1,1-1.21c.44-.47,1-1,1.76-1.69l4.29-4,0,19.27-7.15,6.45.08-8.53q-4.81-.21-7.16-3.1a12.17,12.17,0,0,1-2.35-7.89,11.89,11.89,0,0,1,1.32-5.34,15.32,15.32,0,0,1,3.8-4.78,19.81,19.81,0,0,1,6-3.45A21.64,21.64,0,0,1,30.16,10a25,25,0,0,1,8,1.14,17.58,17.58,0,0,1,5.66,3,12.39,12.39,0,0,1,3.39,4.26,11.36,11.36,0,0,1,1.12,4.88,9.14,9.14,0,0,1-2.2,5.64,21.35,21.35,0,0,1-6.21,5.14,11.86,11.86,0,0,1,2,2.47c.6,1,1.17,2,1.7,3.07l1.59,3.22a20,20,0,0,0,1.73,2.9A8.65,8.65,0,0,0,49,47.82a4.6,4.6,0,0,0,2.67.8,4.22,4.22,0,0,0,2.82-.9,5.26,5.26,0,0,0,1.39-3.39A8.48,8.48,0,0,1,55,47.62,12.18,12.18,0,0,1,52.8,50.7a11.64,11.64,0,0,1-3,2.29,7.35,7.35,0,0,1-3.49.9,5.13,5.13,0,0,1-2.73-.72,7.64,7.64,0,0,1-2.11-1.88,15.1,15.1,0,0,1-1.65-2.63c-.49-1-1-2-1.43-3s-.94-2-1.43-3A15,15,0,0,0,35.29,40a7.24,7.24,0,0,0-2.07-1.79,5,5,0,0,0-2.69-.61l-2.2.08Z" fill="#fff"/>
    </g>
  </g>
</svg>
