<svg width="846" height="26" viewBox="0 0 846 26" fill="none" xmlns="http://www.w3.org/2000/svg">
<path d="M136.265 17.6197C159.21 17.6197 182.155 17.9368 204.631 17.6197C267.847 16.9854 331.531 16.0339 394.746 15.3996C428.461 15.0824 462.176 14.4481 495.423 15.0824C552.083 15.7168 609.211 17.3025 665.871 18.5711C699.586 19.2054 733.769 20.4741 767.484 21.4255C777.318 21.7427 787.619 22.0598 797.921 20.1569C796.985 21.1084 796.048 22.6941 794.643 23.0113C788.556 24.2799 782 25.8657 775.445 25.8657C756.246 26.1828 736.579 25.8657 717.38 25.5485C680.387 24.9142 643.394 23.3284 606.401 22.6941C550.678 21.7427 494.955 20.4741 439.231 20.4741C380.23 20.4741 320.292 22.0598 260.823 22.377C211.655 22.6941 162.487 22.0598 113.32 21.7427C90.8431 21.4255 68.8347 20.7912 46.8264 20.1569C37.4611 19.8398 28.5641 18.8883 19.6671 18.254C18.2623 18.254 16.8575 17.6197 14.0479 16.9854C19.1988 14.131 26.2228 17.6197 29.5006 13.4967C33.2467 16.0339 37.4611 16.0339 42.1437 16.0339C59.9377 15.3996 77.2635 15.0824 95.0575 14.4481C147.503 11.9109 200.417 9.69082 252.862 7.15359C255.672 7.15359 258.481 6.83643 261.291 5.88497C239.751 5.88497 218.679 5.88497 197.139 5.88497C174.662 6.20213 152.654 6.83643 130.177 7.15359C108.169 7.47074 86.6288 7.47074 64.6204 8.10505C43.0803 8.4222 21.5401 9.37367 0.468264 8.73936C0 8.10505 0 7.47074 0 6.83643C1.87305 6.51928 3.27785 6.20213 5.1509 5.88497C73.9856 4.61635 142.82 3.03058 211.655 2.07912C272.529 1.12766 333.872 0.176197 394.746 0.176197C451.874 -0.140957 509.003 -0.140957 566.599 1.12766C622.322 2.07912 678.046 3.98205 733.769 5.88497C767.484 7.15359 801.667 8.73936 835.382 10.3251C838.66 10.3251 841.938 10.9594 845.216 12.2281C835.85 12.5452 826.017 13.1795 816.652 12.8624C756.714 12.2281 696.776 10.9594 636.838 10.3251C553.956 9.69082 471.073 7.47074 388.191 9.69082C344.642 10.6423 300.625 10.6423 257.077 11.9109C216.806 12.8624 177.004 14.4481 136.733 16.0339C136.733 16.6682 136.733 16.9854 136.265 17.6197ZM272.529 5.25066C272.529 5.56782 272.529 5.56782 272.529 5.88497C289.855 5.88497 307.649 5.88497 324.975 5.88497C324.975 5.56782 324.975 5.56782 324.975 5.25066C307.649 5.25066 290.323 5.25066 272.529 5.25066Z" fill="#FF715B"/>
</svg>
